<svg width="16" height="16" viewBox="0 0 16 16" fill="none" xmlns="http://www.w3.org/2000/svg">
<path d="M10.7783 5.87608L10.7844 5.88222L12.7844 7.88217C12.7844 7.88219 12.7844 7.8822 12.7844 7.88222C12.8156 7.91347 12.8331 7.95583 12.8331 8C12.8331 8.04417 12.8156 8.08653 12.7844 8.11778C12.7844 8.1178 12.7844 8.11782 12.7844 8.11784L10.7885 10.1137C10.7573 10.1428 10.7161 10.1588 10.6734 10.1585C10.6297 10.1581 10.5879 10.1406 10.557 10.1097C10.5261 10.0788 10.5085 10.037 10.5082 9.99326C10.5078 9.95052 10.5238 9.90932 10.5529 9.87812L11.4108 9.02022L12.2644 8.16667H11.0573H5.99996C5.95576 8.16667 5.91336 8.14911 5.88211 8.11785C5.85085 8.0866 5.83329 8.0442 5.83329 8C5.83329 7.9558 5.85085 7.91341 5.88211 7.88215C5.91336 7.85089 5.95576 7.83334 5.99996 7.83334H11.0573H12.2644L11.4108 6.97978L10.5488 6.11778L10.5489 6.11773L10.5426 6.11169C10.5267 6.09632 10.514 6.07793 10.5053 6.05759C10.4966 6.03726 10.492 6.01539 10.4918 5.99326C10.4916 5.97113 10.4958 5.94918 10.5042 5.9287C10.5126 5.90822 10.5249 5.88961 10.5406 5.87396C10.5562 5.85831 10.5748 5.84593 10.5953 5.83756L10.4081 5.37986L10.5953 5.83755C10.6158 5.82917 10.6378 5.82496 10.6599 5.82515C10.682 5.82534 10.7039 5.82994 10.7242 5.83867L10.9193 5.38452L10.7242 5.83868C10.7445 5.84741 10.7629 5.86011 10.7783 5.87602L10.7783 5.87608ZM3.21544 3.88215C3.2467 3.8509 3.28909 3.83334 3.33329 3.83334C3.3775 3.83334 3.41989 3.8509 3.45114 3.88215C3.4824 3.91341 3.49996 3.9558 3.49996 4V12C3.49996 12.0442 3.4824 12.0866 3.45114 12.1179C3.41989 12.1491 3.37749 12.1667 3.33329 12.1667C3.28909 12.1667 3.2467 12.1491 3.21544 12.1179C3.18419 12.0866 3.16663 12.0442 3.16663 12V4C3.16663 3.9558 3.18419 3.91341 3.21544 3.88215Z" fill="#252C32" stroke="#0E73F6"/>
</svg>
