<svg xmlns="http://www.w3.org/2000/svg">
    <symbol id="icon-search" viewBox="0 0 16 16" fill="none"
        xmlns="http://www.w3.org/2000/svg">
        <path fill-rule="evenodd" clip-rule="evenodd"
            d="M6 2.00077C4.93913 2.00077 3.92172 2.42219 3.17157 3.17234C2.42143 3.92248 2 4.9399 2 6.00077C2 7.06163 2.42143 8.07905 3.17157 8.82919C3.92172 9.57934 4.93913 10.0008 6 10.0008C7.06087 10.0008 8.07828 9.57934 8.82843 8.82919C9.57857 8.07905 10 7.06163 10 6.00077C10 4.9399 9.57857 3.92248 8.82843 3.17234C8.07828 2.42219 7.06087 2.00077 6 2.00077ZM1.13461e-07 6.00077C-0.00012039 5.05647 0.222642 4.12548 0.650171 3.28351C1.0777 2.44154 1.69792 1.71236 2.4604 1.15529C3.22287 0.598219 4.10606 0.228978 5.03815 0.0775993C5.97023 -0.0737798 6.92488 -0.00302249 7.82446 0.284117C8.72404 0.571256 9.54315 1.06667 10.2152 1.73006C10.8872 2.39346 11.3931 3.2061 11.6919 4.1019C11.9906 4.9977 12.0737 5.95136 11.9343 6.88532C11.795 7.81928 11.4372 8.70716 10.89 9.47677L15.707 14.2938C15.8892 14.4824 15.99 14.735 15.9877 14.9972C15.9854 15.2594 15.8802 15.5102 15.6948 15.6956C15.5094 15.881 15.2586 15.9862 14.9964 15.9884C14.7342 15.9907 14.4816 15.8899 14.293 15.7078L9.477 10.8918C8.57936 11.53 7.52335 11.9089 6.42468 11.9869C5.326 12.0648 4.22707 11.8389 3.2483 11.3337C2.26953 10.8286 1.44869 10.0638 0.875723 9.12312C0.30276 8.18244 -0.000214051 7.1022 1.13461e-07 6.00077Z"
            fill="currentColor" />
    </symbol>
    <symbol id="icon-reset" viewBox="0 0 10 10" fill="none"
        xmlns="http://www.w3.org/2000/svg">
        <path fill-rule="evenodd" clip-rule="evenodd"
            d="M5.00003 6.414L1.70703 9.707L0.29303 8.293L3.58603 5L0.29303 1.707L1.70703 0.293L5.00003 3.586L8.29303 0.293L9.70703 1.707L6.41403 5L9.70703 8.293L8.29303 9.707L5.00003 6.414Z"
            fill="currentColor" />
    </symbol>
    <symbol id="icon-input-del" viewBox="0 0 13 13" fill="none"
        xmlns="http://www.w3.org/2000/svg">
        <path fill-rule="evenodd" clip-rule="evenodd"
            d="M0.293 1.293C0.480528 1.10553 0.734836 1.00021 1 1.00021C1.26516 1.00021 1.51947 1.10553 1.707 1.293L6 5.586L10.293 1.293C10.3852 1.19749 10.4956 1.12131 10.6176 1.0689C10.7396 1.01649 10.8708 0.988903 11.0036 0.98775C11.1364 0.986596 11.2681 1.0119 11.391 1.06218C11.5139 1.11246 11.6255 1.18671 11.7194 1.2806C11.8133 1.3745 11.8875 1.48615 11.9378 1.60905C11.9881 1.73194 12.0134 1.86362 12.0123 1.9964C12.0111 2.12918 11.9835 2.2604 11.9311 2.3824C11.8787 2.50441 11.8025 2.61475 11.707 2.707L7.414 7L11.707 11.293C11.8892 11.4816 11.99 11.7342 11.9877 11.9964C11.9854 12.2586 11.8802 12.5094 11.6948 12.6948C11.5094 12.8802 11.2586 12.9854 10.9964 12.9877C10.7342 12.99 10.4816 12.8892 10.293 12.707L6 8.414L1.707 12.707C1.5184 12.8892 1.2658 12.99 1.0036 12.9877C0.741402 12.9854 0.49059 12.8802 0.305182 12.6948C0.119773 12.5094 0.0146042 12.2586 0.0123258 11.9964C0.0100473 11.7342 0.110842 11.4816 0.293 11.293L4.586 7L0.293 2.707C0.105529 2.51947 0.000213623 2.26516 0.000213623 2C0.000213623 1.73484 0.105529 1.48053 0.293 1.293Z"
            fill="currentColor" />
    </symbol>
    <symbol id="icon-input-calendar" viewBox="0 0 16 16" fill="none"
        xmlns="http://www.w3.org/2000/svg">
        <path fill-rule="evenodd" clip-rule="evenodd"
            d="M4 0C3.73478 0 3.48043 0.105357 3.29289 0.292893C3.10536 0.48043 3 0.734784 3 1V2H2C1.46957 2 0.960859 2.21071 0.585786 2.58579C0.210714 2.96086 0 3.46957 0 4V14C0 14.5304 0.210714 15.0391 0.585786 15.4142C0.960859 15.7893 1.46957 16 2 16H14C14.5304 16 15.0391 15.7893 15.4142 15.4142C15.7893 15.0391 16 14.5304 16 14V4C16 3.46957 15.7893 2.96086 15.4142 2.58579C15.0391 2.21071 14.5304 2 14 2H13V1C13 0.734784 12.8946 0.48043 12.7071 0.292893C12.5196 0.105357 12.2652 0 12 0C11.7348 0 11.4804 0.105357 11.2929 0.292893C11.1054 0.48043 11 0.734784 11 1V2H5V1C5 0.734784 4.89464 0.48043 4.70711 0.292893C4.51957 0.105357 4.26522 0 4 0ZM4 5C3.73478 5 3.48043 5.10536 3.29289 5.29289C3.10536 5.48043 3 5.73478 3 6C3 6.26522 3.10536 6.51957 3.29289 6.70711C3.48043 6.89464 3.73478 7 4 7H12C12.2652 7 12.5196 6.89464 12.7071 6.70711C12.8946 6.51957 13 6.26522 13 6C13 5.73478 12.8946 5.48043 12.7071 5.29289C12.5196 5.10536 12.2652 5 12 5H4Z"
            fill="currentColor" />
    </symbol>
    <symbol id="icon-back" viewBox="0 0 16 16" fill="none"
        xmlns="http://www.w3.org/2000/svg">
        <path
            d="M10.7783 5.87608L10.7844 5.88222L12.7844 7.88217C12.7844 7.88219 12.7844 7.8822 12.7844 7.88222C12.8156 7.91347 12.8331 7.95583 12.8331 8C12.8331 8.04417 12.8156 8.08653 12.7844 8.11778C12.7844 8.1178 12.7844 8.11782 12.7844 8.11784L10.7885 10.1137C10.7573 10.1428 10.7161 10.1588 10.6734 10.1585C10.6297 10.1581 10.5879 10.1406 10.557 10.1097C10.5261 10.0788 10.5085 10.037 10.5082 9.99326C10.5078 9.95052 10.5238 9.90932 10.5529 9.87812L11.4108 9.02022L12.2644 8.16667H11.0573H5.99996C5.95576 8.16667 5.91336 8.14911 5.88211 8.11785C5.85085 8.0866 5.83329 8.0442 5.83329 8C5.83329 7.9558 5.85085 7.91341 5.88211 7.88215C5.91336 7.85089 5.95576 7.83334 5.99996 7.83334H11.0573H12.2644L11.4108 6.97978L10.5488 6.11778L10.5489 6.11773L10.5426 6.11169C10.5267 6.09632 10.514 6.07793 10.5053 6.05759C10.4966 6.03726 10.492 6.01539 10.4918 5.99326C10.4916 5.97113 10.4958 5.94918 10.5042 5.9287C10.5126 5.90822 10.5249 5.88961 10.5406 5.87396C10.5562 5.85831 10.5748 5.84593 10.5953 5.83756L10.4081 5.37986L10.5953 5.83755C10.6158 5.82917 10.6378 5.82496 10.6599 5.82515C10.682 5.82534 10.7039 5.82994 10.7242 5.83867L10.9193 5.38452L10.7242 5.83868C10.7445 5.84741 10.7629 5.86011 10.7783 5.87602L10.7783 5.87608ZM3.21544 3.88215C3.2467 3.8509 3.28909 3.83334 3.33329 3.83334C3.3775 3.83334 3.41989 3.8509 3.45114 3.88215C3.4824 3.91341 3.49996 3.9558 3.49996 4V12C3.49996 12.0442 3.4824 12.0866 3.45114 12.1179C3.41989 12.1491 3.37749 12.1667 3.33329 12.1667C3.28909 12.1667 3.2467 12.1491 3.21544 12.1179C3.18419 12.0866 3.16663 12.0442 3.16663 12V4C3.16663 3.9558 3.18419 3.91341 3.21544 3.88215Z"
            fill="currentColor" stroke="currentColor" />
    </symbol>
    <symbol id="icon-arrange" width="10" height="10" viewBox="0 0 10 10" fill="none"
        xmlns="http://www.w3.org/2000/svg">
        <path fill-rule="evenodd" clip-rule="evenodd"
            d="M5 0C5.26522 0 5.51957 0.105357 5.70711 0.292893C5.89464 0.48043 6 0.734784 6 1V4H9C9.26522 4 9.51957 4.10536 9.70711 4.29289C9.89464 4.48043 10 4.73478 10 5C10 5.26522 9.89464 5.51957 9.70711 5.70711C9.51957 5.89464 9.26522 6 9 6H6V9C6 9.26522 5.89464 9.51957 5.70711 9.70711C5.51957 9.89464 5.26522 10 5 10C4.73478 10 4.48043 9.89464 4.29289 9.70711C4.10536 9.51957 4 9.26522 4 9V6H1C0.734784 6 0.48043 5.89464 0.292893 5.70711C0.105357 5.51957 0 5.26522 0 5C0 4.73478 0.105357 4.48043 0.292893 4.29289C0.48043 4.10536 0.734784 4 1 4H4V1C4 0.734784 4.10536 0.48043 4.29289 0.292893C4.48043 0.105357 4.73478 0 5 0Z"
            fill="currentColor" />
    </symbol>
    <symbol id="icon-info" viewBox="0 0 16 16" fill="none"
        xmlns="http://www.w3.org/2000/svg">
        <path fill-rule="evenodd" clip-rule="evenodd"
            d="M16 8C16 10.1217 15.1571 12.1566 13.6569 13.6569C12.1566 15.1571 10.1217 16 8 16C5.87827 16 3.84344 15.1571 2.34315 13.6569C0.842855 12.1566 0 10.1217 0 8C0 5.87827 0.842855 3.84344 2.34315 2.34315C3.84344 0.842855 5.87827 0 8 0C10.1217 0 12.1566 0.842855 13.6569 2.34315C15.1571 3.84344 16 5.87827 16 8ZM9 4C9 4.26522 8.89464 4.51957 8.70711 4.70711C8.51957 4.89464 8.26522 5 8 5C7.73478 5 7.48043 4.89464 7.29289 4.70711C7.10536 4.51957 7 4.26522 7 4C7 3.73478 7.10536 3.48043 7.29289 3.29289C7.48043 3.10536 7.73478 3 8 3C8.26522 3 8.51957 3.10536 8.70711 3.29289C8.89464 3.48043 9 3.73478 9 4ZM7 7C6.73478 7 6.48043 7.10536 6.29289 7.29289C6.10536 7.48043 6 7.73478 6 8C6 8.26522 6.10536 8.51957 6.29289 8.70711C6.48043 8.89464 6.73478 9 7 9V12C7 12.2652 7.10536 12.5196 7.29289 12.7071C7.48043 12.8946 7.73478 13 8 13H9C9.26522 13 9.51957 12.8946 9.70711 12.7071C9.89464 12.5196 10 12.2652 10 12C10 11.7348 9.89464 11.4804 9.70711 11.2929C9.51957 11.1054 9.26522 11 9 11V8C9 7.73478 8.89464 7.48043 8.70711 7.29289C8.51957 7.10536 8.26522 7 8 7H7Z"
            fill="currentColor" />
    </symbol>
    <symbol id="icon-arrow"  viewBox="0 0 10 6" fill="none"
        xmlns="http://www.w3.org/2000/svg">
        <path d="M5 6L10 0H0L5 6Z" fill="currentColor" />
    </symbol>
</svg>